<svg xmlns="http://www.w3.org/2000/svg" xmlns:xlink="http://www.w3.org/1999/xlink" version="1.1" id="body_4" preserveAspectRatio="xMinYMin meet" viewBox="0 0 793 1121"><defs><clipPath id="1"><path id="" clip-rule="evenodd" transform="matrix(1 0 0 1 0 0)" d="M0 841L0 -0.9199829L0 -0.9199829L595.2 -0.9199829L595.2 -0.9199829L595.2 841L595.2 841L0 841z" /></clipPath><clipPath id="2"><path id="" clip-rule="evenodd" transform="matrix(1 0 0 1 0 0)" d="M547.9 805.696L552.96405 805.696L552.96405 805.696L552.96405 794.416L552.96405 794.416L547.9 794.416z" /></clipPath><clipPath id="3"><path id="" clip-rule="evenodd" transform="matrix(1 0 0 1 0 0)" d="M547.9 805.696L552.96405 805.696L552.96405 805.696L552.96405 794.416L552.96405 794.416L547.9 794.416z" /></clipPath><clipPath id="4"><path id="" clip-rule="evenodd" transform="matrix(1 0 0 1 0 0)" d="M547.9 805.696L552.96405 805.696L552.96405 805.696L552.96405 794.416L552.96405 794.416L547.9 794.416z" /></clipPath><clipPath id="5"><path id="" clip-rule="evenodd" transform="matrix(1 0 0 1 0 0)" d="M68.904 132.81L526.534 132.81L526.534 132.81L526.534 102.78601L526.534 102.78601L68.904 102.78601z" /></clipPath><clipPath id="6"><path id="" clip-rule="evenodd" transform="matrix(1 0 0 1 0 0)" d="M68.904 132.81L526.534 132.81L526.534 132.81L526.534 102.78601L526.534 102.78601L68.904 102.78601z" /></clipPath><clipPath id="7"><path id="" clip-rule="evenodd" transform="matrix(1 0 0 1 0 0)" d="M67.464 179.60999L233.854 179.60999L233.854 179.60999L233.854 162.08997L233.854 162.08997L67.464 162.08997z" /></clipPath><clipPath id="8"><path id="" clip-rule="evenodd" transform="matrix(1 0 0 1 0 0)" d="M67.464 179.60999L233.854 179.60999L233.854 179.60999L233.854 162.08997L233.854 162.08997L67.464 162.08997z" /></clipPath><clipPath id="9"><path id="" clip-rule="evenodd" transform="matrix(1 0 0 1 0 0)" d="M67.464 179.60999L233.854 179.60999L233.854 179.60999L233.854 162.08997L233.854 162.08997L67.464 162.08997z" /></clipPath><clipPath id="10"><path id="" clip-rule="evenodd" transform="matrix(1 0 0 1 0 0)" d="M234.34 179.60999L526.78 179.60999L526.78 179.60999L526.78 162.08997L526.78 162.08997L234.34 162.08997z" /></clipPath><clipPath id="11"><path id="" clip-rule="evenodd" transform="matrix(1 0 0 1 0 0)" d="M234.34 179.60999L526.78 179.60999L526.78 179.60999L526.78 162.08997L526.78 162.08997L234.34 162.08997z" /></clipPath><clipPath id="12"><path id="" clip-rule="evenodd" transform="matrix(1 0 0 1 0 0)" d="M67.464 197.60999L233.854 197.60999L233.854 197.60999L233.854 180.08997L233.854 180.08997L67.464 180.08997z" /></clipPath><clipPath id="13"><path id="" clip-rule="evenodd" transform="matrix(1 0 0 1 0 0)" d="M67.464 197.60999L233.854 197.60999L233.854 197.60999L233.854 180.08997L233.854 180.08997L67.464 180.08997z" /></clipPath><clipPath id="14"><path id="" clip-rule="evenodd" transform="matrix(1 0 0 1 0 0)" d="M67.464 197.60999L233.854 197.60999L233.854 197.60999L233.854 180.08997L233.854 180.08997L67.464 180.08997z" /></clipPath><clipPath id="15"><path id="" clip-rule="evenodd" transform="matrix(1 0 0 1 0 0)" d="M234.34 197.60999L526.78 197.60999L526.78 197.60999L526.78 180.08997L526.78 180.08997L234.34 180.08997z" /></clipPath><clipPath id="16"><path id="" clip-rule="evenodd" transform="matrix(1 0 0 1 0 0)" d="M234.34 197.60999L526.78 197.60999L526.78 197.60999L526.78 180.08997L526.78 180.08997L234.34 180.08997z" /></clipPath><clipPath id="17"><path id="" clip-rule="evenodd" transform="matrix(1 0 0 1 0 0)" d="M67.464 226.90997L233.854 226.90997L233.854 226.90997L233.854 198.086L233.854 198.086L67.464 198.086z" /></clipPath><clipPath id="18"><path id="" clip-rule="evenodd" transform="matrix(1 0 0 1 0 0)" d="M67.464 226.90997L233.854 226.90997L233.854 226.90997L233.854 198.086L233.854 198.086L67.464 198.086z" /></clipPath><clipPath id="19"><path id="" clip-rule="evenodd" transform="matrix(1 0 0 1 0 0)" d="M67.464 226.90997L233.854 226.90997L233.854 226.90997L233.854 198.086L233.854 198.086L67.464 198.086z" /></clipPath><clipPath id="20"><path id="" clip-rule="evenodd" transform="matrix(1 0 0 1 0 0)" d="M67.464 226.90997L233.854 226.90997L233.854 226.90997L233.854 198.086L233.854 198.086L67.464 198.086z" /></clipPath><clipPath id="21"><path id="" clip-rule="evenodd" transform="matrix(1 0 0 1 0 0)" d="M67.464 226.90997L233.854 226.90997L233.854 226.90997L233.854 198.086L233.854 198.086L67.464 198.086z" /></clipPath><clipPath id="22"><path id="" clip-rule="evenodd" transform="matrix(1 0 0 1 0 0)" d="M67.464 226.90997L233.854 226.90997L233.854 226.90997L233.854 198.086L233.854 198.086L67.464 198.086z" /></clipPath><clipPath id="23"><path id="" clip-rule="evenodd" transform="matrix(1 0 0 1 0 0)" d="M67.464 226.90997L233.854 226.90997L233.854 226.90997L233.854 198.086L233.854 198.086L67.464 198.086z" /></clipPath><clipPath id="24"><path id="" clip-rule="evenodd" transform="matrix(1 0 0 1 0 0)" d="M67.464 226.90997L233.854 226.90997L233.854 226.90997L233.854 198.086L233.854 198.086L67.464 198.086z" /></clipPath><clipPath id="25"><path id="" clip-rule="evenodd" transform="matrix(1 0 0 1 0 0)" d="M67.464 226.90997L233.854 226.90997L233.854 226.90997L233.854 198.086L233.854 198.086L67.464 198.086z" /></clipPath><clipPath id="26"><path id="" clip-rule="evenodd" transform="matrix(1 0 0 1 0 0)" d="M67.464 226.90997L233.854 226.90997L233.854 226.90997L233.854 198.086L233.854 198.086L67.464 198.086z" /></clipPath><clipPath id="27"><path id="" clip-rule="evenodd" transform="matrix(1 0 0 1 0 0)" d="M234.34 226.90997L526.78 226.90997L526.78 226.90997L526.78 198.086L526.78 198.086L234.34 198.086z" /></clipPath><clipPath id="28"><path id="" clip-rule="evenodd" transform="matrix(1 0 0 1 0 0)" d="M234.34 226.90997L526.78 226.90997L526.78 226.90997L526.78 198.086L526.78 198.086L234.34 198.086z" /></clipPath><clipPath id="29"><path id="" clip-rule="evenodd" transform="matrix(1 0 0 1 0 0)" d="M0 841.24005L595.44 841.24005L595.44 841.24005L595.44 -0.9199219L595.44 -0.9199219L0 -0.9199219z" /></clipPath><clipPath id="30"><path id="" clip-rule="evenodd" transform="matrix(1 0 0 1 0 0)" d="M68.424 612.21L527.014 612.21L527.014 612.21L527.014 266.03003L527.014 266.03003L68.424 266.03003z" /></clipPath><clipPath id="31"><path id="" clip-rule="evenodd" transform="matrix(1 0 0 1 0 0)" d="M68.424 612.21L527.014 612.21L527.014 612.21L527.014 266.03003L527.014 266.03003L68.424 266.03003z" /></clipPath><clipPath id="32"><path id="" clip-rule="evenodd" transform="matrix(1 0 0 1 0 0)" d="M68.424 612.21L527.014 612.21L527.014 612.21L527.014 266.03003L527.014 266.03003L68.424 266.03003z" /></clipPath><clipPath id="33"><path id="" clip-rule="evenodd" transform="matrix(1 0 0 1 0 0)" d="M68.424 612.21L527.014 612.21L527.014 612.21L527.014 266.03003L527.014 266.03003L68.424 266.03003z" /></clipPath><clipPath id="34"><path id="" clip-rule="evenodd" transform="matrix(1 0 0 1 0 0)" d="M68.424 612.21L527.014 612.21L527.014 612.21L527.014 266.03003L527.014 266.03003L68.424 266.03003z" /></clipPath><clipPath id="35"><path id="" clip-rule="evenodd" transform="matrix(1 0 0 1 0 0)" d="M68.424 612.21L527.014 612.21L527.014 612.21L527.014 266.03003L527.014 266.03003L68.424 266.03003z" /></clipPath><clipPath id="36"><path id="" clip-rule="evenodd" transform="matrix(1 0 0 1 0 0)" d="M68.424 612.21L527.014 612.21L527.014 612.21L527.014 266.03003L527.014 266.03003L68.424 266.03003z" /></clipPath><clipPath id="37"><path id="" clip-rule="evenodd" transform="matrix(1 0 0 1 0 0)" d="M68.424 612.21L527.014 612.21L527.014 612.21L527.014 266.03003L527.014 266.03003L68.424 266.03003z" /></clipPath><clipPath id="38"><path id="" clip-rule="evenodd" transform="matrix(1 0 0 1 0 0)" d="M68.424 612.21L527.014 612.21L527.014 612.21L527.014 266.03003L527.014 266.03003L68.424 266.03003z" /></clipPath><clipPath id="39"><path id="" clip-rule="evenodd" transform="matrix(1 0 0 1 0 0)" d="M68.424 612.21L527.014 612.21L527.014 612.21L527.014 266.03003L527.014 266.03003L68.424 266.03003z" /></clipPath><clipPath id="40"><path id="" clip-rule="evenodd" transform="matrix(1 0 0 1 0 0)" d="M68.424 612.21L527.014 612.21L527.014 612.21L527.014 266.03003L527.014 266.03003L68.424 266.03003z" /></clipPath><clipPath id="41"><path id="" clip-rule="evenodd" transform="matrix(1 0 0 1 0 0)" d="M68.184 660.21L320.064 660.21L320.064 660.21L320.064 639.33L320.064 639.33L68.184 639.33z" /></clipPath><clipPath id="42"><path id="" clip-rule="evenodd" transform="matrix(1 0 0 1 0 0)" d="M68.184 660.21L320.064 660.21L320.064 660.21L320.064 639.33L320.064 639.33L68.184 639.33z" /></clipPath><clipPath id="43"><path id="" clip-rule="evenodd" transform="matrix(1 0 0 1 0 0)" d="M68.184 660.21L320.064 660.21L320.064 660.21L320.064 639.33L320.064 639.33L68.184 639.33z" /></clipPath><clipPath id="44"><path id="" clip-rule="evenodd" transform="matrix(1 0 0 1 0 0)" d="M320.3 660.21L525.08997 660.21L525.08997 660.21L525.08997 639.33L525.08997 639.33L320.3 639.33z" /></clipPath><clipPath id="45"><path id="" clip-rule="evenodd" transform="matrix(1 0 0 1 0 0)" d="M320.3 660.21L525.08997 660.21L525.08997 660.21L525.08997 639.33L525.08997 639.33L320.3 639.33z" /></clipPath><clipPath id="46"><path id="" clip-rule="evenodd" transform="matrix(1 0 0 1 0 0)" d="M68.184 681.83L320.064 681.83L320.064 681.83L320.064 660.446L320.064 660.446L68.184 660.446z" /></clipPath><clipPath id="47"><path id="" clip-rule="evenodd" transform="matrix(1 0 0 1 0 0)" d="M68.184 681.83L320.064 681.83L320.064 681.83L320.064 660.446L320.064 660.446L68.184 660.446z" /></clipPath><clipPath id="48"><path id="" clip-rule="evenodd" transform="matrix(1 0 0 1 0 0)" d="M68.184 681.83L320.064 681.83L320.064 681.83L320.064 660.446L320.064 660.446L68.184 660.446z" /></clipPath><clipPath id="49"><path id="" clip-rule="evenodd" transform="matrix(1 0 0 1 0 0)" d="M68.184 681.83L320.064 681.83L320.064 681.83L320.064 660.446L320.064 660.446L68.184 660.446z" /></clipPath><clipPath id="50"><path id="" clip-rule="evenodd" transform="matrix(1 0 0 1 0 0)" d="M68.184 681.83L320.064 681.83L320.064 681.83L320.064 660.446L320.064 660.446L68.184 660.446z" /></clipPath><clipPath id="51"><path id="" clip-rule="evenodd" transform="matrix(1 0 0 1 0 0)" d="M68.184 681.83L320.064 681.83L320.064 681.83L320.064 660.446L320.064 660.446L68.184 660.446z" /></clipPath><clipPath id="52"><path id="" clip-rule="evenodd" transform="matrix(1 0 0 1 0 0)" d="M68.184 681.83L320.064 681.83L320.064 681.83L320.064 660.446L320.064 660.446L68.184 660.446z" /></clipPath><clipPath id="53"><path id="" clip-rule="evenodd" transform="matrix(1 0 0 1 0 0)" d="M68.184 681.83L320.064 681.83L320.064 681.83L320.064 660.446L320.064 660.446L68.184 660.446z" /></clipPath><clipPath id="54"><path id="" clip-rule="evenodd" transform="matrix(1 0 0 1 0 0)" d="M68.184 681.83L320.064 681.83L320.064 681.83L320.064 660.446L320.064 660.446L68.184 660.446z" /></clipPath><clipPath id="55"><path id="" clip-rule="evenodd" transform="matrix(1 0 0 1 0 0)" d="M320.3 681.83L525.08997 681.83L525.08997 681.83L525.08997 660.446L525.08997 660.446L320.3 660.446z" /></clipPath><clipPath id="56"><path id="" clip-rule="evenodd" transform="matrix(1 0 0 1 0 0)" d="M320.3 681.83L525.08997 681.83L525.08997 681.83L525.08997 660.446L525.08997 660.446L320.3 660.446z" /></clipPath><clipPath id="57"><path id="" clip-rule="evenodd" transform="matrix(1 0 0 1 0 0)" d="M68.184 703.19L320.064 703.19L320.064 703.19L320.064 682.07L320.064 682.07L68.184 682.07z" /></clipPath><clipPath id="58"><path id="" clip-rule="evenodd" transform="matrix(1 0 0 1 0 0)" d="M68.184 703.19L320.064 703.19L320.064 703.19L320.064 682.07L320.064 682.07L68.184 682.07z" /></clipPath><clipPath id="59"><path id="" clip-rule="evenodd" transform="matrix(1 0 0 1 0 0)" d="M68.184 703.19L320.064 703.19L320.064 703.19L320.064 682.07L320.064 682.07L68.184 682.07z" /></clipPath><clipPath id="60"><path id="" clip-rule="evenodd" transform="matrix(1 0 0 1 0 0)" d="M68.184 703.19L320.064 703.19L320.064 703.19L320.064 682.07L320.064 682.07L68.184 682.07z" /></clipPath><clipPath id="61"><path id="" clip-rule="evenodd" transform="matrix(1 0 0 1 0 0)" d="M320.3 703.19L525.08997 703.19L525.08997 703.19L525.08997 682.07L525.08997 682.07L320.3 682.07z" /></clipPath><clipPath id="62"><path id="" clip-rule="evenodd" transform="matrix(1 0 0 1 0 0)" d="M320.3 703.19L525.08997 703.19L525.08997 703.19L525.08997 682.07L525.08997 682.07L320.3 682.07z" /></clipPath><clipPath id="63"><path id="" clip-rule="evenodd" transform="matrix(1 0 0 1 0 0)" d="M0 841.24005L595.44 841.24005L595.44 841.24005L595.44 -0.9199219L595.44 -0.9199219L0 -0.9199219z" /></clipPath><clipPath id="64"><path id="" clip-rule="evenodd" transform="matrix(1 0 0 1 0 0)" d="M0 841.24005L595.44 841.24005L595.44 841.24005L595.44 -0.9199219L595.44 -0.9199219L0 -0.9199219z" /></clipPath><clipPath id="65"><path id="" clip-rule="evenodd" transform="matrix(1 0 0 1 0 0)" d="M0 841.24005L595.44 841.24005L595.44 841.24005L595.44 -0.9199219L595.44 -0.9199219L0 -0.9199219z" /></clipPath><clipPath id="66"><path id="" clip-rule="evenodd" transform="matrix(1 0 0 1 0 0)" d="M0 841.24005L595.44 841.24005L595.44 841.24005L595.44 -0.9199219L595.44 -0.9199219L0 -0.9199219z" /></clipPath></defs><g transform="matrix(1.3333334 0 0 1.3333334 0 0)"><g clip-path="url(#1)"><path id="1" transform="matrix(1 0 0 -1 0 841)" d="M-0 0.019958L595.45 0.019958L595.45 0.019958L595.45 841.92L595.45 841.92L-0 841.92z" stroke="none" fill="#FFFFFF" fill-rule="evenodd" /><g clip-path="url(#2)"><g clip-path="url(#3)"></g><g clip-path="url(#4)"></g></g><path id="65" transform="matrix(1 0 0 -1 0 841)" d="M68.904 720.94L70.824 720.94L70.824 720.94L70.824 738.22003L70.824 738.22003L68.904 738.22003z" stroke="none" fill="#E6E6E6" fill-rule="evenodd" /><path id="66" transform="matrix(1 0 0 -1 0 841)" d="M524.62 720.94L526.54 720.94L526.54 720.94L526.54 738.22003L526.54 738.22003L524.62 738.22003z" stroke="none" fill="#E6E6E6" fill-rule="evenodd" /><path id="67" transform="matrix(1 0 0 -1 0 841)" d="M68.904 708.19L526.534 708.19L526.534 708.19L526.534 720.934L526.534 720.934L68.904 720.934z" stroke="none" fill="#E6E6E6" fill-rule="evenodd" /><g clip-path="url(#5)"><path id="68" transform="matrix(1 0 0 -1 0 841)" d="M70.824 720.94L524.614 720.94L524.614 720.94L524.614 738.22003L524.614 738.22003L70.824 738.22003z" stroke="none" fill="#E6E6E6" fill-rule="evenodd" /><g clip-path="url(#6)"></g></g><path id="69" transform="matrix(1 0 0 -1 0 841)" d="M65.784 738.22L68.663994 738.22L68.663994 738.22L68.663994 741.33997L68.663994 741.33997L65.784 741.33997z" stroke="none" fill="#000000" fill-rule="evenodd" /><path id="70" transform="matrix(1 0 0 -1 0 841)" d="M65.784 738.46L68.663994 738.46L68.663994 738.46L68.663994 741.34L68.663994 741.34L65.784 741.34z" stroke="none" fill="#000000" fill-rule="evenodd" /><path id="71" transform="matrix(1 0 0 -1 0 841)" d="M68.664 738.46L526.534 738.46L526.534 738.46L526.534 741.34L526.534 741.34L68.664 741.34z" stroke="none" fill="#000000" fill-rule="evenodd" /><path id="72" transform="matrix(1 0 0 -1 0 841)" d="M68.664 738.22L526.534 738.22L526.534 738.22L526.534 738.45996L526.534 738.45996L68.664 738.45996z" stroke="none" fill="#E6E6E6" fill-rule="evenodd" /><path id="73" transform="matrix(1 0 0 -1 0 841)" d="M526.54 738.22L529.42 738.22L529.42 738.22L529.42 741.33997L529.42 741.33997L526.54 741.33997z" stroke="none" fill="#000000" fill-rule="evenodd" /><path id="74" transform="matrix(1 0 0 -1 0 841)" d="M526.54 738.46L529.42 738.46L529.42 738.46L529.42 741.34L529.42 741.34L526.54 741.34z" stroke="none" fill="#000000" fill-rule="evenodd" /><path id="75" transform="matrix(1 0 0 -1 0 841)" d="M65.784 708.43L68.663994 708.43L68.663994 708.43L68.663994 738.214L68.663994 738.214L65.784 738.214z" stroke="none" fill="#000000" fill-rule="evenodd" /><path id="76" transform="matrix(1 0 0 -1 0 841)" d="M65.784 705.55L68.663994 705.55L68.663994 705.55L68.663994 708.43L68.663994 708.43L65.784 708.43z" stroke="none" fill="#000000" fill-rule="evenodd" /><path id="77" transform="matrix(1 0 0 -1 0 841)" d="M65.784 705.55L68.663994 705.55L68.663994 705.55L68.663994 708.43L68.663994 708.43L65.784 708.43z" stroke="none" fill="#000000" fill-rule="evenodd" /><path id="78" transform="matrix(1 0 0 -1 0 841)" d="M68.664 705.55L526.534 705.55L526.534 705.55L526.534 708.43L526.534 708.43L68.664 708.43z" stroke="none" fill="#000000" fill-rule="evenodd" /><path id="79" transform="matrix(1 0 0 -1 0 841)" d="M526.54 708.43L529.42 708.43L529.42 708.43L529.42 738.214L529.42 738.214L526.54 738.214z" stroke="none" fill="#000000" fill-rule="evenodd" /><path id="80" transform="matrix(1 0 0 -1 0 841)" d="M526.54 705.55L529.42 705.55L529.42 705.55L529.42 708.43L529.42 708.43L526.54 708.43z" stroke="none" fill="#000000" fill-rule="evenodd" /><path id="81" transform="matrix(1 0 0 -1 0 841)" d="M526.54 705.55L529.42 705.55L529.42 705.55L529.42 708.43L529.42 708.43L526.54 708.43z" stroke="none" fill="#000000" fill-rule="evenodd" /><path id="108" transform="matrix(1 0 0 -1 0 841)" d="M67.464 661.39L71.30399 661.39L71.30399 661.39L71.30399 678.91003L71.30399 678.91003L67.464 678.91003z" stroke="none" fill="#E0E0E0" fill-rule="evenodd" /><path id="109" transform="matrix(1 0 0 -1 0 841)" d="M228.58 661.39L233.86 661.39L233.86 661.39L233.86 678.91003L233.86 678.91003L228.58 678.91003z" stroke="none" fill="#E0E0E0" fill-rule="evenodd" /><g clip-path="url(#7)"><path id="110" transform="matrix(1 0 0 -1 0 841)" d="M71.304 661.39L228.574 661.39L228.574 661.39L228.574 678.91003L228.574 678.91003L71.304 678.91003z" stroke="none" fill="#E0E0E0" fill-rule="evenodd" /><g clip-path="url(#8)"></g><g clip-path="url(#9)"></g></g><g clip-path="url(#10)"><g clip-path="url(#11)"></g></g><path id="116" transform="matrix(1 0 0 -1 0 841)" d="M64.584 678.91L67.464 678.91L67.464 678.91L67.464 682.02997L67.464 682.02997L64.584 682.02997z" stroke="none" fill="#000000" fill-rule="evenodd" /><path id="117" transform="matrix(1 0 0 -1 0 841)" d="M64.584 679.15L67.464 679.15L67.464 679.15L67.464 682.03L67.464 682.03L64.584 682.03z" stroke="none" fill="#000000" fill-rule="evenodd" /><path id="118" transform="matrix(1 0 0 -1 0 841)" d="M67.464 679.15L233.61398 679.15L233.61398 679.15L233.61398 682.03L233.61398 682.03L67.464 682.03z" stroke="none" fill="#000000" fill-rule="evenodd" /><path id="119" transform="matrix(1 0 0 -1 0 841)" d="M67.464 678.91L233.61398 678.91L233.61398 678.91L233.61398 679.14996L233.61398 679.14996L67.464 679.14996z" stroke="none" fill="#E0E0E0" fill-rule="evenodd" /><path id="120" transform="matrix(1 0 0 -1 0 841)" d="M233.62 678.91L234.1 678.91L234.1 678.91L234.1 679.14996L234.1 679.14996L233.62 679.14996z" stroke="none" fill="#000000" fill-rule="evenodd" /><path id="121" transform="matrix(1 0 0 -1 0 841)" d="M233.62 679.15L236.5 679.15L236.5 679.15L236.5 682.03L236.5 682.03L233.62 682.03z" stroke="none" fill="#000000" fill-rule="evenodd" /><path id="122" transform="matrix(1 0 0 -1 0 841)" d="M236.5 679.15L526.54004 679.15L526.54004 679.15L526.54004 682.03L526.54004 682.03L236.5 682.03z" stroke="none" fill="#000000" fill-rule="evenodd" /><path id="123" transform="matrix(1 0 0 -1 0 841)" d="M526.54 678.91L529.42 678.91L529.42 678.91L529.42 682.02997L529.42 682.02997L526.54 682.02997z" stroke="none" fill="#000000" fill-rule="evenodd" /><path id="124" transform="matrix(1 0 0 -1 0 841)" d="M526.54 679.15L529.42 679.15L529.42 679.15L529.42 682.03L529.42 682.03L526.54 682.03z" stroke="none" fill="#000000" fill-rule="evenodd" /><path id="125" transform="matrix(1 0 0 -1 0 841)" d="M64.584 661.39L67.464 661.39L67.464 661.39L67.464 678.91003L67.464 678.91003L64.584 678.91003z" stroke="none" fill="#000000" fill-rule="evenodd" /><path id="126" transform="matrix(1 0 0 -1 0 841)" d="M233.62 661.39L234.1 661.39L234.1 661.39L234.1 678.91003L234.1 678.91003L233.62 678.91003z" stroke="none" fill="#000000" fill-rule="evenodd" /><path id="127" transform="matrix(1 0 0 -1 0 841)" d="M526.54 661.39L529.42 661.39L529.42 661.39L529.42 678.91003L529.42 678.91003L526.54 678.91003z" stroke="none" fill="#000000" fill-rule="evenodd" /><path id="128" transform="matrix(1 0 0 -1 0 841)" d="M67.464 643.39L71.30399 643.39L71.30399 643.39L71.30399 660.91003L71.30399 660.91003L67.464 660.91003z" stroke="none" fill="#E0E0E0" fill-rule="evenodd" /><path id="129" transform="matrix(1 0 0 -1 0 841)" d="M228.58 643.39L233.86 643.39L233.86 643.39L233.86 660.91003L233.86 660.91003L228.58 660.91003z" stroke="none" fill="#E0E0E0" fill-rule="evenodd" /><g clip-path="url(#12)"><path id="130" transform="matrix(1 0 0 -1 0 841)" d="M71.304 643.39L228.574 643.39L228.574 643.39L228.574 660.91003L228.574 660.91003L71.304 660.91003z" stroke="none" fill="#E0E0E0" fill-rule="evenodd" /><g clip-path="url(#13)"></g><g clip-path="url(#14)"></g></g><g clip-path="url(#15)"><g clip-path="url(#16)"></g></g><path id="154" transform="matrix(1 0 0 -1 0 841)" d="M64.584 660.91L67.464 660.91L67.464 660.91L67.464 661.38995L67.464 661.38995L64.584 661.38995z" stroke="none" fill="#000000" fill-rule="evenodd" /><path id="155" transform="matrix(1 0 0 -1 0 841)" d="M67.464 660.91L233.61398 660.91L233.61398 660.91L233.61398 661.38995L233.61398 661.38995L67.464 661.38995z" stroke="none" fill="#000000" fill-rule="evenodd" /><path id="156" transform="matrix(1 0 0 -1 0 841)" d="M233.62 660.91L234.1 660.91L234.1 660.91L234.1 661.38995L234.1 661.38995L233.62 661.38995z" stroke="none" fill="#000000" fill-rule="evenodd" /><path id="157" transform="matrix(1 0 0 -1 0 841)" d="M234.1 660.91L526.54004 660.91L526.54004 660.91L526.54004 661.38995L526.54004 661.38995L234.1 661.38995z" stroke="none" fill="#000000" fill-rule="evenodd" /><path id="158" transform="matrix(1 0 0 -1 0 841)" d="M526.54 660.91L529.42 660.91L529.42 660.91L529.42 661.38995L529.42 661.38995L526.54 661.38995z" stroke="none" fill="#000000" fill-rule="evenodd" /><path id="159" transform="matrix(1 0 0 -1 0 841)" d="M64.584 643.39L67.464 643.39L67.464 643.39L67.464 660.91003L67.464 660.91003L64.584 660.91003z" stroke="none" fill="#000000" fill-rule="evenodd" /><path id="160" transform="matrix(1 0 0 -1 0 841)" d="M233.62 643.39L234.1 643.39L234.1 643.39L234.1 660.91003L234.1 660.91003L233.62 660.91003z" stroke="none" fill="#000000" fill-rule="evenodd" /><path id="161" transform="matrix(1 0 0 -1 0 841)" d="M526.54 643.39L529.42 643.39L529.42 643.39L529.42 660.91003L529.42 660.91003L526.54 660.91003z" stroke="none" fill="#000000" fill-rule="evenodd" /><path id="162" transform="matrix(1 0 0 -1 0 841)" d="M67.464 614.09L71.30399 614.09L71.30399 614.09L71.30399 642.914L71.30399 642.914L67.464 642.914z" stroke="none" fill="#E0E0E0" fill-rule="evenodd" /><path id="163" transform="matrix(1 0 0 -1 0 841)" d="M228.58 614.09L233.86 614.09L233.86 614.09L233.86 642.914L233.86 642.914L228.58 642.914z" stroke="none" fill="#E0E0E0" fill-rule="evenodd" /><g clip-path="url(#17)"><path id="164" transform="matrix(1 0 0 -1 0 841)" d="M71.304 628.51L228.574 628.51L228.574 628.51L228.574 642.91003L228.574 642.91003L71.304 642.91003z" stroke="none" fill="#E0E0E0" fill-rule="evenodd" /><g clip-path="url(#18)"></g><g clip-path="url(#19)"></g><g clip-path="url(#20)"></g><g clip-path="url(#21)"></g><path id="195" transform="matrix(1 0 0 -1 0 841)" d="M71.304 614.09L228.574 614.09L228.574 614.09L228.574 628.51404L228.574 628.51404L71.304 628.51404z" stroke="none" fill="#E0E0E0" fill-rule="evenodd" /><g clip-path="url(#22)"></g><g clip-path="url(#23)"></g><g clip-path="url(#24)"></g><g clip-path="url(#25)"></g><g clip-path="url(#26)"></g></g><g clip-path="url(#27)"><g clip-path="url(#28)"></g></g><path id="226" transform="matrix(1 0 0 -1 0 841)" d="M64.584 642.91L67.464 642.91L67.464 642.91L67.464 643.38995L67.464 643.38995L64.584 643.38995z" stroke="none" fill="#000000" fill-rule="evenodd" /><path id="227" transform="matrix(1 0 0 -1 0 841)" d="M67.464 642.91L233.61398 642.91L233.61398 642.91L233.61398 643.38995L233.61398 643.38995L67.464 643.38995z" stroke="none" fill="#000000" fill-rule="evenodd" /><path id="228" transform="matrix(1 0 0 -1 0 841)" d="M233.62 642.91L234.1 642.91L234.1 642.91L234.1 643.38995L234.1 643.38995L233.62 643.38995z" stroke="none" fill="#000000" fill-rule="evenodd" /><path id="229" transform="matrix(1 0 0 -1 0 841)" d="M234.1 642.91L526.54004 642.91L526.54004 642.91L526.54004 643.38995L526.54004 643.38995L234.1 643.38995z" stroke="none" fill="#000000" fill-rule="evenodd" /><path id="230" transform="matrix(1 0 0 -1 0 841)" d="M526.54 642.91L529.42 642.91L529.42 642.91L529.42 643.38995L529.42 643.38995L526.54 643.38995z" stroke="none" fill="#000000" fill-rule="evenodd" /><path id="231" transform="matrix(1 0 0 -1 0 841)" d="M64.584 614.09L67.464 614.09L67.464 614.09L67.464 642.914L67.464 642.914L64.584 642.914z" stroke="none" fill="#000000" fill-rule="evenodd" /><path id="232" transform="matrix(1 0 0 -1 0 841)" d="M64.584 611.21L67.464 611.21L67.464 611.21L67.464 614.09L67.464 614.09L64.584 614.09z" stroke="none" fill="#000000" fill-rule="evenodd" /><path id="233" transform="matrix(1 0 0 -1 0 841)" d="M64.584 611.21L67.464 611.21L67.464 611.21L67.464 614.09L67.464 614.09L64.584 614.09z" stroke="none" fill="#000000" fill-rule="evenodd" /><path id="234" transform="matrix(1 0 0 -1 0 841)" d="M67.464 611.21L233.61398 611.21L233.61398 611.21L233.61398 614.09L233.61398 614.09L67.464 614.09z" stroke="none" fill="#000000" fill-rule="evenodd" /><path id="235" transform="matrix(1 0 0 -1 0 841)" d="M233.62 614.09L234.1 614.09L234.1 614.09L234.1 642.914L234.1 642.914L233.62 642.914z" stroke="none" fill="#000000" fill-rule="evenodd" /><path id="236" transform="matrix(1 0 0 -1 0 841)" d="M233.62 611.21L236.5 611.21L236.5 611.21L236.5 614.09L236.5 614.09L233.62 614.09z" stroke="none" fill="#000000" fill-rule="evenodd" /><path id="237" transform="matrix(1 0 0 -1 0 841)" d="M236.5 611.21L526.54004 611.21L526.54004 611.21L526.54004 614.09L526.54004 614.09L236.5 614.09z" stroke="none" fill="#000000" fill-rule="evenodd" /><path id="238" transform="matrix(1 0 0 -1 0 841)" d="M526.54 614.09L529.42 614.09L529.42 614.09L529.42 642.914L529.42 642.914L526.54 642.914z" stroke="none" fill="#000000" fill-rule="evenodd" /><path id="239" transform="matrix(1 0 0 -1 0 841)" d="M526.54 611.21L529.42 611.21L529.42 611.21L529.42 614.09L529.42 614.09L526.54 614.09z" stroke="none" fill="#000000" fill-rule="evenodd" /><path id="240" transform="matrix(1 0 0 -1 0 841)" d="M526.54 611.21L529.42 611.21L529.42 611.21L529.42 614.09L529.42 614.09L526.54 614.09z" stroke="none" fill="#000000" fill-rule="evenodd" /><g clip-path="url(#29)"></g><g clip-path="url(#30)"><g clip-path="url(#31)"></g><g clip-path="url(#32)"></g><g clip-path="url(#33)"></g><g clip-path="url(#34)"></g><g clip-path="url(#35)"></g><g clip-path="url(#36)"></g><g clip-path="url(#37)"></g><g clip-path="url(#38)"></g><g clip-path="url(#39)"></g><g clip-path="url(#40)"></g></g><path id="258" transform="matrix(1 0 0 -1 0 841)" d="M66.024 574.97L68.184006 574.97L68.184006 574.97L68.184006 577.12994L68.184006 577.12994L66.024 577.12994z" stroke="none" fill="#000000" fill-rule="evenodd" /><path id="259" transform="matrix(1 0 0 -1 0 841)" d="M66.024 574.97L68.184006 574.97L68.184006 574.97L68.184006 577.12994L68.184006 577.12994L66.024 577.12994z" stroke="none" fill="#000000" fill-rule="evenodd" /><path id="260" transform="matrix(1 0 0 -1 0 841)" d="M68.184 574.97L526.774 574.97L526.774 574.97L526.774 577.12994L526.774 577.12994L68.184 577.12994z" stroke="none" fill="#000000" fill-rule="evenodd" /><path id="261" transform="matrix(1 0 0 -1 0 841)" d="M526.78 574.97L528.94 574.97L528.94 574.97L528.94 577.12994L528.94 577.12994L526.78 577.12994z" stroke="none" fill="#000000" fill-rule="evenodd" /><path id="262" transform="matrix(1 0 0 -1 0 841)" d="M526.78 574.97L528.94 574.97L528.94 574.97L528.94 577.12994L528.94 577.12994L526.78 577.12994z" stroke="none" fill="#000000" fill-rule="evenodd" /><path id="263" transform="matrix(1 0 0 -1 0 841)" d="M66.024 228.55L68.184006 228.55L68.184006 228.55L68.184006 574.97003L68.184006 574.97003L66.024 574.97003z" stroke="none" fill="#000000" fill-rule="evenodd" /><path id="264" transform="matrix(1 0 0 -1 0 841)" d="M66.024 226.39L68.184006 226.39L68.184006 226.39L68.184006 228.55L68.184006 228.55L66.024 228.55z" stroke="none" fill="#000000" fill-rule="evenodd" /><path id="265" transform="matrix(1 0 0 -1 0 841)" d="M66.024 226.39L68.184006 226.39L68.184006 226.39L68.184006 228.55L68.184006 228.55L66.024 228.55z" stroke="none" fill="#000000" fill-rule="evenodd" /><path id="266" transform="matrix(1 0 0 -1 0 841)" d="M68.184 226.39L526.774 226.39L526.774 226.39L526.774 228.55L526.774 228.55L68.184 228.55z" stroke="none" fill="#000000" fill-rule="evenodd" /><path id="267" transform="matrix(1 0 0 -1 0 841)" d="M526.78 228.55L528.94 228.55L528.94 228.55L528.94 574.97003L528.94 574.97003L526.78 574.97003z" stroke="none" fill="#000000" fill-rule="evenodd" /><path id="268" transform="matrix(1 0 0 -1 0 841)" d="M526.78 226.39L528.94 226.39L528.94 226.39L528.94 228.55L528.94 228.55L526.78 228.55z" stroke="none" fill="#000000" fill-rule="evenodd" /><path id="269" transform="matrix(1 0 0 -1 0 841)" d="M526.78 226.39L528.94 226.39L528.94 226.39L528.94 228.55L528.94 228.55L526.78 228.55z" stroke="none" fill="#000000" fill-rule="evenodd" /><path id="306" transform="matrix(1 0 0 -1 0 841)" d="M68.184 184.15L70.584 184.15L70.584 184.15L70.584 201.67L70.584 201.67L68.184 201.67z" stroke="none" fill="#E6E6E6" fill-rule="evenodd" /><path id="307" transform="matrix(1 0 0 -1 0 841)" d="M316.68 184.15L320.064 184.15L320.064 184.15L320.064 201.67L320.064 201.67L316.68 201.67z" stroke="none" fill="#E6E6E6" fill-rule="evenodd" /><path id="308" transform="matrix(1 0 0 -1 0 841)" d="M68.184 180.79L320.064 180.79L320.064 180.79L320.064 184.15L320.064 184.15L68.184 184.15z" stroke="none" fill="#E6E6E6" fill-rule="evenodd" /><g clip-path="url(#41)"><path id="309" transform="matrix(1 0 0 -1 0 841)" d="M70.584 184.15L316.68402 184.15L316.68402 184.15L316.68402 201.67L316.68402 201.67L70.584 201.67z" stroke="none" fill="#E6E6E6" fill-rule="evenodd" /><g clip-path="url(#42)"></g><g clip-path="url(#43)"></g></g><g clip-path="url(#44)"><g clip-path="url(#45)"></g></g><path id="361" transform="matrix(1 0 0 -1 0 841)" d="M65.784 201.67L67.944 201.67L67.944 201.67L67.944 203.83L67.944 203.83L65.784 203.83z" stroke="none" fill="#000000" fill-rule="evenodd" /><path id="362" transform="matrix(1 0 0 -1 0 841)" d="M65.784 201.67L67.944 201.67L67.944 201.67L67.944 203.83L67.944 203.83L65.784 203.83z" stroke="none" fill="#000000" fill-rule="evenodd" /><path id="363" transform="matrix(1 0 0 -1 0 841)" d="M67.944 201.67L319.824 201.67L319.824 201.67L319.824 203.83L319.824 203.83L67.944 203.83z" stroke="none" fill="#000000" fill-rule="evenodd" /><path id="364" transform="matrix(1 0 0 -1 0 841)" d="M319.82 201.67L321.98 201.67L321.98 201.67L321.98 203.83L321.98 203.83L319.82 203.83z" stroke="none" fill="#000000" fill-rule="evenodd" /><path id="365" transform="matrix(1 0 0 -1 0 841)" d="M321.98 201.67L524.85 201.67L524.85 201.67L524.85 203.83L524.85 203.83L321.98 203.83z" stroke="none" fill="#000000" fill-rule="evenodd" /><path id="366" transform="matrix(1 0 0 -1 0 841)" d="M524.86 201.67L527.01996 201.67L527.01996 201.67L527.01996 203.83L527.01996 203.83L524.86 203.83z" stroke="none" fill="#000000" fill-rule="evenodd" /><path id="367" transform="matrix(1 0 0 -1 0 841)" d="M524.86 201.67L527.01996 201.67L527.01996 201.67L527.01996 203.83L527.01996 203.83L524.86 203.83z" stroke="none" fill="#000000" fill-rule="evenodd" /><path id="368" transform="matrix(1 0 0 -1 0 841)" d="M65.784 180.79L67.944 180.79L67.944 180.79L67.944 201.67L67.944 201.67L65.784 201.67z" stroke="none" fill="#000000" fill-rule="evenodd" /><path id="369" transform="matrix(1 0 0 -1 0 841)" d="M319.82 180.79L320.06 180.79L320.06 180.79L320.06 201.67L320.06 201.67L319.82 201.67z" stroke="none" fill="#000000" fill-rule="evenodd" /><path id="370" transform="matrix(1 0 0 -1 0 841)" d="M524.86 180.79L527.01996 180.79L527.01996 180.79L527.01996 201.67L527.01996 201.67L524.86 201.67z" stroke="none" fill="#000000" fill-rule="evenodd" /><path id="371" transform="matrix(1 0 0 -1 0 841)" d="M68.184 163.01L70.584 163.01L70.584 163.01L70.584 180.554L70.584 180.554L68.184 180.554z" stroke="none" fill="#E6E6E6" fill-rule="evenodd" /><path id="372" transform="matrix(1 0 0 -1 0 841)" d="M316.68 163.01L320.064 163.01L320.064 163.01L320.064 180.554L320.064 180.554L316.68 180.554z" stroke="none" fill="#E6E6E6" fill-rule="evenodd" /><path id="373" transform="matrix(1 0 0 -1 0 841)" d="M68.184 159.17L320.064 159.17L320.064 159.17L320.064 163.01L320.064 163.01L68.184 163.01z" stroke="none" fill="#E6E6E6" fill-rule="evenodd" /><g clip-path="url(#46)"><path id="374" transform="matrix(1 0 0 -1 0 841)" d="M70.584 163.01L316.68402 163.01L316.68402 163.01L316.68402 180.554L316.68402 180.554L70.584 180.554z" stroke="none" fill="#E6E6E6" fill-rule="evenodd" /><g clip-path="url(#47)"></g><g clip-path="url(#48)"></g><g clip-path="url(#49)"></g><g clip-path="url(#50)"></g><g clip-path="url(#51)"></g><g clip-path="url(#52)"></g><g clip-path="url(#53)"></g><g clip-path="url(#54)"></g></g><g clip-path="url(#55)"><g clip-path="url(#56)"></g></g><path id="428" transform="matrix(1 0 0 -1 0 841)" d="M65.784 180.55L67.944 180.55L67.944 180.55L67.944 180.79L67.944 180.79L65.784 180.79z" stroke="none" fill="#000000" fill-rule="evenodd" /><path id="429" transform="matrix(1 0 0 -1 0 841)" d="M67.944 180.55L319.824 180.55L319.824 180.55L319.824 180.79L319.824 180.79L67.944 180.79z" stroke="none" fill="#000000" fill-rule="evenodd" /><path id="430" transform="matrix(1 0 0 -1 0 841)" d="M319.82 180.55L320.06 180.55L320.06 180.55L320.06 180.79L320.06 180.79L319.82 180.79z" stroke="none" fill="#000000" fill-rule="evenodd" /><path id="431" transform="matrix(1 0 0 -1 0 841)" d="M320.06 180.55L524.85 180.55L524.85 180.55L524.85 180.79L524.85 180.79L320.06 180.79z" stroke="none" fill="#000000" fill-rule="evenodd" /><path id="432" transform="matrix(1 0 0 -1 0 841)" d="M524.86 180.55L527.01996 180.55L527.01996 180.55L527.01996 180.79L527.01996 180.79L524.86 180.79z" stroke="none" fill="#000000" fill-rule="evenodd" /><path id="433" transform="matrix(1 0 0 -1 0 841)" d="M65.784 159.17L67.944 159.17L67.944 159.17L67.944 180.554L67.944 180.554L65.784 180.554z" stroke="none" fill="#000000" fill-rule="evenodd" /><path id="434" transform="matrix(1 0 0 -1 0 841)" d="M319.82 159.17L320.06 159.17L320.06 159.17L320.06 180.554L320.06 180.554L319.82 180.554z" stroke="none" fill="#000000" fill-rule="evenodd" /><path id="435" transform="matrix(1 0 0 -1 0 841)" d="M524.86 159.17L527.01996 159.17L527.01996 159.17L527.01996 180.554L527.01996 180.554L524.86 180.554z" stroke="none" fill="#000000" fill-rule="evenodd" /><path id="436" transform="matrix(1 0 0 -1 0 841)" d="M68.184 141.41L70.584 141.41L70.584 141.41L70.584 158.93001L70.584 158.93001L68.184 158.93001z" stroke="none" fill="#E6E6E6" fill-rule="evenodd" /><path id="437" transform="matrix(1 0 0 -1 0 841)" d="M316.68 141.41L320.064 141.41L320.064 141.41L320.064 158.93001L320.064 158.93001L316.68 158.93001z" stroke="none" fill="#E6E6E6" fill-rule="evenodd" /><path id="438" transform="matrix(1 0 0 -1 0 841)" d="M68.184 137.81L320.064 137.81L320.064 137.81L320.064 141.41L320.064 141.41L68.184 141.41z" stroke="none" fill="#E6E6E6" fill-rule="evenodd" /><g clip-path="url(#57)"><path id="439" transform="matrix(1 0 0 -1 0 841)" d="M70.584 141.41L316.68402 141.41L316.68402 141.41L316.68402 158.93001L316.68402 158.93001L70.584 158.93001z" stroke="none" fill="#E6E6E6" fill-rule="evenodd" /><g clip-path="url(#58)"></g><g clip-path="url(#59)"></g><g clip-path="url(#60)"></g></g><g clip-path="url(#61)"><g clip-path="url(#62)"></g></g><path id="482" transform="matrix(1 0 0 -1 0 841)" d="M65.784 158.93L67.944 158.93L67.944 158.93L67.944 159.16998L67.944 159.16998L65.784 159.16998z" stroke="none" fill="#000000" fill-rule="evenodd" /><path id="483" transform="matrix(1 0 0 -1 0 841)" d="M67.944 158.93L319.824 158.93L319.824 158.93L319.824 159.16998L319.824 159.16998L67.944 159.16998z" stroke="none" fill="#000000" fill-rule="evenodd" /><path id="484" transform="matrix(1 0 0 -1 0 841)" d="M319.82 158.93L320.06 158.93L320.06 158.93L320.06 159.16998L320.06 159.16998L319.82 159.16998z" stroke="none" fill="#000000" fill-rule="evenodd" /><path id="485" transform="matrix(1 0 0 -1 0 841)" d="M320.06 158.93L524.85 158.93L524.85 158.93L524.85 159.16998L524.85 159.16998L320.06 159.16998z" stroke="none" fill="#000000" fill-rule="evenodd" /><path id="486" transform="matrix(1 0 0 -1 0 841)" d="M524.86 158.93L527.01996 158.93L527.01996 158.93L527.01996 159.16998L527.01996 159.16998L524.86 159.16998z" stroke="none" fill="#000000" fill-rule="evenodd" /><path id="487" transform="matrix(1 0 0 -1 0 841)" d="M65.784 137.81L67.944 137.81L67.944 137.81L67.944 158.93L67.944 158.93L65.784 158.93z" stroke="none" fill="#000000" fill-rule="evenodd" /><path id="488" transform="matrix(1 0 0 -1 0 841)" d="M65.784 135.65L67.944 135.65L67.944 135.65L67.944 137.81L67.944 137.81L65.784 137.81z" stroke="none" fill="#000000" fill-rule="evenodd" /><path id="489" transform="matrix(1 0 0 -1 0 841)" d="M65.784 135.65L67.944 135.65L67.944 135.65L67.944 137.81L67.944 137.81L65.784 137.81z" stroke="none" fill="#000000" fill-rule="evenodd" /><path id="490" transform="matrix(1 0 0 -1 0 841)" d="M67.944 135.65L319.824 135.65L319.824 135.65L319.824 137.81L319.824 137.81L67.944 137.81z" stroke="none" fill="#000000" fill-rule="evenodd" /><path id="491" transform="matrix(1 0 0 -1 0 841)" d="M319.82 137.81L320.06 137.81L320.06 137.81L320.06 158.93L320.06 158.93L319.82 158.93z" stroke="none" fill="#000000" fill-rule="evenodd" /><path id="492" transform="matrix(1 0 0 -1 0 841)" d="M319.82 135.65L321.98 135.65L321.98 135.65L321.98 137.81L321.98 137.81L319.82 137.81z" stroke="none" fill="#000000" fill-rule="evenodd" /><path id="493" transform="matrix(1 0 0 -1 0 841)" d="M321.98 135.65L524.85 135.65L524.85 135.65L524.85 137.81L524.85 137.81L321.98 137.81z" stroke="none" fill="#000000" fill-rule="evenodd" /><path id="494" transform="matrix(1 0 0 -1 0 841)" d="M524.86 137.81L527.01996 137.81L527.01996 137.81L527.01996 158.93L527.01996 158.93L524.86 158.93z" stroke="none" fill="#000000" fill-rule="evenodd" /><path id="495" transform="matrix(1 0 0 -1 0 841)" d="M524.86 135.65L527.01996 135.65L527.01996 135.65L527.01996 137.81L527.01996 137.81L524.86 137.81z" stroke="none" fill="#000000" fill-rule="evenodd" /><path id="496" transform="matrix(1 0 0 -1 0 841)" d="M524.86 135.65L527.01996 135.65L527.01996 135.65L527.01996 137.81L527.01996 137.81L524.86 137.81z" stroke="none" fill="#000000" fill-rule="evenodd" /><g clip-path="url(#63)"></g><path id="497" transform="matrix(1 0 0 -1 0 841)" d="M70.824 85.944L214.89401 85.944L214.89401 85.944L214.89401 86.42398L214.89401 86.42398L70.824 86.42398z" stroke="none" fill="#000000" fill-rule="evenodd" /><g clip-path="url(#64)"></g><g clip-path="url(#65)"></g><g clip-path="url(#66)"></g></g></g></svg>